<svg width="107" height="26" viewBox="0 0 107 26" fill="none" xmlns="http://www.w3.org/2000/svg">
<path d="M84.9398 10.8281L80.1916 21.7704H77.6905L72.9619 10.8281H75.6975L79.0388 18.644L82.4192 10.8281H84.9398Z" fill="white"/>
<path d="M93.3225 11.3166C94.0455 11.6488 94.5926 12.0982 94.9639 12.6844C95.3547 13.2706 95.55 13.974 95.55 14.7947C95.55 15.5958 95.3547 16.2993 94.9639 16.905C94.5731 17.5107 94.0259 17.9601 93.3225 18.2728C92.5995 18.5854 91.7593 18.7417 90.8019 18.7417H88.5939V21.7704H86.0537V10.8281H90.8019C91.7593 10.8281 92.5995 10.9844 93.3225 11.3166ZM92.3846 16.2016C92.7754 15.8694 92.9708 15.4004 92.9708 14.7947C92.9708 14.189 92.7754 13.7005 92.3846 13.3878C91.9938 13.0557 91.4076 12.8993 90.6456 12.8993H88.5743V16.7096H90.6456C91.4076 16.6901 91.9938 16.5337 92.3846 16.2016Z" fill="white"/>
<path d="M107 10.8281V21.7704H104.929L99.4777 15.1269V21.7704H96.9766V10.8281H99.0673L104.519 17.4717V10.8281H107Z" fill="white"/>
<path d="M43.3007 13.8399V21.7731H41.0927V20.8547C40.526 21.5386 39.6858 21.8903 38.6111 21.8903C37.8686 21.8903 37.1847 21.7144 36.579 21.3823C35.9732 21.0501 35.5043 20.5616 35.1526 19.9559C34.8008 19.3306 34.6445 18.6272 34.6445 17.8065C34.6445 16.9858 34.8204 16.2628 35.1526 15.6571C35.5043 15.0318 35.9732 14.5629 36.579 14.2307C37.1847 13.8985 37.8686 13.7227 38.6111 13.7227C39.6272 13.7227 40.4088 14.0353 40.995 14.6801V13.8399H43.3007ZM40.4674 19.4087C40.8582 19.0179 41.034 18.4708 41.034 17.8065C41.034 17.1421 40.8386 16.595 40.4674 16.2042C40.0766 15.8134 39.6076 15.5985 39.0214 15.5985C38.4352 15.5985 37.9468 15.7939 37.556 16.2042C37.1652 16.595 36.9893 17.1421 36.9893 17.8065C36.9893 18.4708 37.1847 19.0179 37.556 19.4087C37.9468 19.7995 38.4352 20.0145 39.0214 20.0145C39.6076 20.0145 40.0961 19.8191 40.4674 19.4087Z" fill="white"/>
<path d="M52.0547 10.8281H54.3604V21.7899H52.0547V10.8281Z" fill="white"/>
<path d="M64.3251 13.8399V21.7731H62.1171V20.8547C61.5504 21.5386 60.7102 21.8903 59.6355 21.8903C58.893 21.8903 58.2091 21.7144 57.6034 21.3823C56.9977 21.0501 56.5287 20.5616 56.177 19.9559C55.8253 19.3306 55.6689 18.6272 55.6689 17.8065C55.6689 16.9858 55.8448 16.2628 56.177 15.6571C56.5287 15.0318 56.9977 14.5629 57.6034 14.2307C58.2091 13.8985 58.893 13.7227 59.6355 13.7227C60.6516 13.7227 61.4332 14.0353 62.0194 14.6801V13.8399H64.3251ZM61.4918 19.4087C61.8826 19.0179 62.0585 18.4708 62.0585 17.8065C62.0585 17.1421 61.8631 16.595 61.4918 16.2042C61.101 15.8134 60.632 15.5985 60.0459 15.5985C59.4597 15.5985 58.9712 15.7939 58.5804 16.2042C58.1896 16.595 58.0137 17.1421 58.0137 17.8065C58.0137 18.4708 58.2091 19.0179 58.5804 19.4087C58.9712 19.7995 59.4597 20.0145 60.0459 20.0145C60.632 20.0145 61.1205 19.8191 61.4918 19.4087Z" fill="white"/>
<path d="M67.3346 21.6558C66.7094 21.4995 66.2013 21.2846 65.8301 21.0501L66.5921 19.3892C66.9438 19.6237 67.3737 19.7995 67.8818 19.9363C68.3898 20.0731 68.8783 20.1513 69.3668 20.1513C70.3438 20.1513 70.8323 19.9168 70.8323 19.4283C70.8323 19.1938 70.6955 19.0375 70.4415 18.9398C70.1679 18.8421 69.7771 18.7639 69.2104 18.6858C68.5656 18.5881 68.0185 18.4708 67.6082 18.3536C67.1783 18.2168 66.8266 18.0019 66.514 17.6697C66.2013 17.3375 66.045 16.8881 66.045 16.2824C66.045 15.7743 66.1818 15.3445 66.4749 14.9537C66.768 14.5629 67.1978 14.2698 67.745 14.0548C68.2921 13.8399 68.9564 13.7227 69.7185 13.7227C70.2851 13.7227 70.8323 13.7813 71.3989 13.8985C71.946 14.0158 72.415 14.1916 72.7862 14.4065L72.0242 16.0479C71.3208 15.6571 70.5587 15.4617 69.738 15.4617C69.2495 15.4617 68.8783 15.5399 68.6243 15.6766C68.3702 15.8134 68.253 15.9893 68.253 16.2042C68.253 16.4582 68.3898 16.6146 68.6438 16.7123C68.9173 16.81 69.3277 16.9077 69.9139 16.9858C70.5587 17.1031 71.0863 17.2007 71.5162 17.3375C71.9265 17.4548 72.2977 17.6892 72.5908 18.0019C72.9035 18.3341 73.0402 18.7835 73.0402 19.3697C73.0402 19.8582 72.8839 20.3076 72.5908 20.6788C72.2977 21.0696 71.8679 21.3627 71.3012 21.5777C70.7346 21.7926 70.0702 21.8903 69.2886 21.8903C68.6243 21.9098 67.9794 21.8317 67.3346 21.6558Z" fill="white"/>
<path d="M50.2768 19.7578C50.0228 19.9337 49.6906 20.0705 49.3389 20.0705C49.0263 20.0705 48.7722 19.9728 48.6159 19.7969C48.4401 19.621 48.3619 19.3475 48.3619 19.0153V15.5958H50.2963V13.8177H48.3619V10.8086H46.0562V13.8177H44.8252V15.5958H46.0562V19.0349C46.0562 19.9728 46.3102 20.6762 46.8378 21.1647C47.3458 21.6532 48.0883 21.8877 49.0263 21.8877C49.3975 21.8877 49.7297 21.8486 50.0619 21.7704C50.14 21.7509 50.2182 21.7314 50.2963 21.7118V19.7578H50.2768Z" fill="white"/>
<path d="M12.7595 0C12.7399 0 12.7399 0 12.7204 0C9.32048 0 6.13549 1.3287 3.7321 3.7321C1.3287 6.13549 0 9.34001 0 12.7595C0.0195398 19.7547 5.80332 25.4408 12.8963 25.4408H25.4213V12.9158C25.4408 5.80332 19.7547 0.0195398 12.7595 0ZM17.1364 23.057H13.6583V18.9145C13.6583 15.2019 10.6883 12.1733 7.03433 12.1537C5.58838 12.1537 4.20105 12.6227 3.0482 13.4825C3.39992 12.4469 3.98612 11.4894 4.78725 10.7078C6.15504 9.34001 7.97223 8.57798 9.90667 8.57798H9.92622C13.9123 8.59752 17.1364 11.9193 17.1364 16.0031V23.057ZM7.71822 14.8502C9.32048 14.8502 10.6296 16.1594 10.6296 17.7617C10.6296 19.3639 9.32048 20.6731 7.71822 20.6731C6.11596 20.6731 4.80679 19.3639 4.80679 17.7617C4.80679 16.1594 6.11596 14.8502 7.71822 14.8502ZM23.0765 23.057H19.5007V16.0226C19.5007 10.6297 15.202 6.2332 9.92622 6.2332H9.90667C7.32741 6.2332 4.92402 7.22971 3.10682 9.04691C3.08728 9.06645 3.06774 9.086 3.0482 9.12508C3.55624 7.75729 4.35737 6.4872 5.43206 5.41251C7.38604 3.45853 10.0044 2.36431 12.779 2.38385C18.4651 2.40339 23.096 7.11248 23.096 12.9158V23.057H23.0765Z" fill="white"/>
</svg>
